<svg width="45" height="45" viewBox="0 0 45 45" fill="none" xmlns="http://www.w3.org/2000/svg">
<path d="M22.5577 14.2861C24.0592 14.2861 25.2764 13.0688 25.2764 11.5673C25.2764 10.0658 24.0592 8.84856 22.5577 8.84856C21.0562 8.84856 19.8389 10.0658 19.8389 11.5673C19.8389 13.0688 21.0562 14.2861 22.5577 14.2861Z" fill="#4B3D3D"/>
<path d="M22.5577 25.1611C24.0592 25.1611 25.2764 23.9438 25.2764 22.4423C25.2764 20.9408 24.0592 19.7236 22.5577 19.7236C21.0562 19.7236 19.8389 20.9408 19.8389 22.4423C19.8389 23.9438 21.0562 25.1611 22.5577 25.1611Z" fill="#4B3D3D"/>
<path d="M22.5577 36.0361C24.0592 36.0361 25.2764 34.8188 25.2764 33.3173C25.2764 31.8158 24.0592 30.5986 22.5577 30.5986C21.0562 30.5986 19.8389 31.8158 19.8389 33.3173C19.8389 34.8188 21.0562 36.0361 22.5577 36.0361Z" fill="#4B3D3D"/>
</svg>
