<svg width="44" height="44" viewBox="0 0 44 44" fill="none" xmlns="http://www.w3.org/2000/svg">
<path d="M30.4961 30.9483C34.3404 27.104 31.7775 14.2878 26.0102 8.52044C23.4473 5.95666 16.0777 0.509191 8.06731 8.52044C0.0569682 16.5299 5.50444 23.8995 8.06731 26.4633C13.8347 32.2307 26.6509 34.7935 30.4961 30.9492V30.9483Z" stroke="#4B3D3D" stroke-width="2" stroke-linecap="round" stroke-linejoin="round"/>
<path d="M37.4062 37.4062L31.0625 31.0625" stroke="#4B3D3D" stroke-width="2"/>
<path d="M36.8854 34.9623C36.0006 35.8471 36.0006 37.2816 36.8854 38.1664C37.7701 39.0512 39.2047 39.0512 40.0894 38.1664C40.9742 37.2816 40.9742 35.8471 40.0894 34.9623C39.2047 34.0775 37.7701 34.0775 36.8854 34.9623Z" fill="#4B3D3D"/>
<path d="M34.9632 36.8845C34.0784 37.7692 34.0784 39.2038 34.9632 40.0885C35.848 40.9733 37.2825 40.9733 38.1673 40.0885C39.0521 39.2038 39.0521 37.7692 38.1673 36.8845C37.2825 35.9997 35.848 35.9997 34.9632 36.8845Z" fill="#4B3D3D"/>
<path d="M15.6562 18.375C16.6573 18.375 17.4688 17.5635 17.4688 16.5625C17.4688 15.5615 16.6573 14.75 15.6562 14.75C14.6552 14.75 13.8438 15.5615 13.8438 16.5625C13.8438 17.5635 14.6552 18.375 15.6562 18.375Z" fill="#4B3D3D"/>
<path d="M11.125 21.0938C12.126 21.0938 12.9375 20.2823 12.9375 19.2812C12.9375 18.2802 12.126 17.4688 11.125 17.4688C10.124 17.4688 9.3125 18.2802 9.3125 19.2812C9.3125 20.2823 10.124 21.0938 11.125 21.0938Z" fill="#4B3D3D"/>
<path d="M15.6562 23.8125C16.6573 23.8125 17.4688 23.001 17.4688 22C17.4688 20.999 16.6573 20.1875 15.6562 20.1875C14.6552 20.1875 13.8438 20.999 13.8438 22C13.8438 23.001 14.6552 23.8125 15.6562 23.8125Z" fill="#4B3D3D"/>
</svg>
