<svg width="44" height="44" viewBox="0 0 44 44" fill="none" xmlns="http://www.w3.org/2000/svg">
<path d="M5.6875 17.9219V15.8828C5.68743 14.9908 5.88242 14.1097 6.25881 13.301C6.6352 12.4923 7.18389 11.7758 7.86641 11.2015C8.54894 10.6273 9.34879 10.2092 10.2099 9.97667C11.071 9.74413 11.9726 9.70272 12.8514 9.85534C13.4234 7.87092 14.6251 6.12628 16.2753 4.88454C17.9256 3.6428 19.9348 2.9713 22 2.9713C24.0652 2.9713 26.0744 3.6428 27.7247 4.88454C29.3749 6.12628 30.5766 7.87092 31.1486 9.85534C32.0274 9.70272 32.929 9.74413 33.7901 9.97667C34.6512 10.2092 35.4511 10.6273 36.1336 11.2015C36.8161 11.7758 37.3648 12.4923 37.7412 13.301C38.1176 14.1097 38.3126 14.9908 38.3125 15.8828V17.9219C38.3131 22.0133 36.7762 25.9556 34.0065 28.967C31.2368 31.9784 27.4366 33.839 23.3594 34.18V38.3125H20.6406V34.18C16.5634 33.839 12.7632 31.9784 9.99353 28.967C7.22383 25.9556 5.68691 22.0133 5.6875 17.9219ZM17.8838 16.5598H26.1162C25.9953 15.4825 26.1633 14.3925 26.6029 13.4016C27.0424 12.4106 27.7377 11.5545 28.6174 10.9211C28.2653 9.43057 27.4203 8.10259 26.2193 7.15223C25.0182 6.20188 23.5315 5.68483 22 5.68483C20.4685 5.68483 18.9818 6.20188 17.7807 7.15223C16.5797 8.10259 15.7347 9.43057 15.3826 10.9211C16.2627 11.5548 16.9583 12.4113 17.3979 13.4028C17.8375 14.3942 18.0052 15.4848 17.8838 16.5625V16.5598ZM14.7872 16.5598C14.888 16.1122 14.8868 15.6477 14.7838 15.2007C14.6807 14.7537 14.4785 14.3355 14.1919 13.9773C13.9054 13.619 13.5419 13.3298 13.1284 13.131C12.715 12.9323 12.2621 12.8291 11.8033 12.8291C11.3446 12.8291 10.8917 12.9323 10.4782 13.131C10.0647 13.3298 9.70127 13.619 9.41473 13.9773C9.12819 14.3355 8.92591 14.7537 8.82288 15.2007C8.71984 15.6477 8.71869 16.1122 8.8195 16.5598H14.7872ZM29.2128 16.5598H35.1778C35.2786 16.1122 35.2774 15.6477 35.1744 15.2007C35.0714 14.7537 34.8691 14.3355 34.5826 13.9773C34.296 13.619 33.9325 13.3298 33.5191 13.131C33.1056 12.9323 32.6527 12.8291 32.194 12.8291C31.7352 12.8291 31.2823 12.9323 30.8688 13.131C30.4554 13.3298 30.0919 13.619 29.8054 13.9773C29.5188 14.3355 29.3165 14.7537 29.2135 15.2007C29.1105 15.6477 29.1093 16.1122 29.2101 16.5598H29.2128ZM22 31.5156C25.3704 31.5156 28.6206 30.2635 31.1199 28.0023C33.6192 25.7411 35.1894 22.6321 35.5258 19.2785H8.47422C8.81058 22.6321 10.3808 25.7411 12.8801 28.0023C15.3794 30.2635 18.6296 31.5156 22 31.5156ZM16.5625 38.3152H27.4375C27.798 38.3152 28.1438 38.4584 28.3987 38.7134C28.6537 38.9683 28.7969 39.3141 28.7969 39.6746C28.7969 40.0351 28.6537 40.3809 28.3987 40.6358C28.1438 40.8907 27.798 41.034 27.4375 41.034H16.5625C16.202 41.034 15.8562 40.8907 15.6013 40.6358C15.3463 40.3809 15.2031 40.0351 15.2031 39.6746C15.2031 39.3141 15.3463 38.9683 15.6013 38.7134C15.8562 38.4584 16.202 38.3152 16.5625 38.3152Z" fill="#FDFDFD"/>
</svg>
