<svg width="44" height="44" viewBox="0 0 44 44" fill="none" xmlns="http://www.w3.org/2000/svg">
<path d="M24.9363 15.4424L28.4996 11.8772C28.078 11.4557 27.7669 10.9368 27.5938 10.3664C27.4206 9.79599 27.3908 9.19167 27.507 8.60699C27.6232 8.02231 27.8818 7.47531 28.2599 7.01443C28.638 6.55355 29.1239 6.19302 29.6745 5.96478C30.2252 5.73654 30.8237 5.64762 31.417 5.70591C32.0102 5.7642 32.5799 5.96789 33.0757 6.29895C33.5714 6.63001 33.9779 7.07821 34.259 7.60386C34.5402 8.12951 34.6873 8.71639 34.6875 9.3125C35.2838 9.31207 35.8709 9.45874 36.397 9.7395C36.923 10.0203 37.3716 10.4264 37.7032 10.9221C38.0347 11.4177 38.2388 11.9874 38.2975 12.5808C38.3562 13.1742 38.2676 13.7728 38.0395 14.3238C37.8115 14.8747 37.4511 15.3609 36.9902 15.7393C36.5294 16.1176 35.9823 16.3764 35.3975 16.4928C34.8127 16.6092 34.2082 16.5795 33.6377 16.4064C33.0671 16.2333 32.548 15.9221 32.1264 15.5004L28.8277 18.8009" stroke="#4B3D3D" stroke-width="2" stroke-linecap="round" stroke-linejoin="round"/>
<path d="M10.9504 33.9558C15.9052 38.9106 21.6433 41.2058 23.7667 39.0824C25.8902 36.9589 23.595 31.2208 18.6402 26.266C13.6854 21.3113 7.94737 19.016 5.8239 21.1395C3.70042 23.263 5.99564 29.0011 10.9504 33.9558Z" stroke="#4B3D3D" stroke-width="2" stroke-linecap="round" stroke-linejoin="round"/>
<path d="M13.8437 29.25L15.6562 31.0625M23.7672 39.0828C30.845 32.0032 32.5669 22.2483 27.6115 17.2948C22.6579 12.3394 12.9031 14.0613 5.82525 21.1391" stroke="#4B3D3D" stroke-width="2" stroke-linecap="round" stroke-linejoin="round"/>
</svg>
